# xmcd
#
# Track frame offsets: 
#        150
#        28577
#        46727
#        59026
#        85096
#        103846
#        119002
#        146632
#        163737
#        176749
#        203004
#
# Disc length: 2965 seconds
#
# Revision: 0
# Processed by: cddbd v1.5.2PL0 Copyright (c) Steve Scherf et al.
# Submitted via: ExactAudioCopy v0.95b4
#
DISCID=9d0b930b
DTITLE=The Long Mouth Castle - Tiger and the Child
DYEAR=2007
DGENRE=Dance
TTITLE0=I crash landed, and now I'm stuck here
TTITLE1=The Beekeepers Trophy Wife
TTITLE2=The Jack Rabbit is...
TTITLE3=running on the hill
TTITLE4=Scare the Cow Ski
TTITLE5=Swamps
TTITLE6=The Black Grass
TTITLE7=You don't live here! The ghosts do!
TTITLE8=I was knifed at a bar in Calcutta
TTITLE9=Tiger and the Child
TTITLE10=Vinyl Dreams
EXTD=
EXTT0=
EXTT1=
EXTT2=
EXTT3=
EXTT4=
EXTT5=
EXTT6=
EXTT7=
EXTT8=
EXTT9=
EXTT10=
PLAYORDER=
